<svg width="28" height="28" viewBox="0 0 28 28" fill="none" xmlns="http://www.w3.org/2000/svg">
<path d="M25.1562 13.125H17.5C16.8038 13.125 16.1361 12.8484 15.6438 12.3562C15.1516 11.8639 14.875 11.1962 14.875 10.5V2.84375C14.875 2.78573 14.852 2.73009 14.8109 2.68907C14.7699 2.64805 14.7143 2.625 14.6562 2.625H11.7441C11.642 2.43586 11.523 2.2563 11.3887 2.08852C10.7581 1.30594 9.82133 0.875 8.75 0.875C6.68937 0.875 5.25 2.4943 5.25 4.8125V12.6875C5.25 14.0547 6.36234 14.875 7.4375 14.875C7.72564 14.8781 8.01151 14.8237 8.27833 14.7149C8.54515 14.6061 8.78755 14.4451 8.99131 14.2413C9.19507 14.0376 9.35608 13.7952 9.4649 13.5283C9.57372 13.2615 9.62815 12.9756 9.625 12.6875V4.375C9.625 4.14294 9.53281 3.92038 9.36872 3.75628C9.20462 3.59219 8.98206 3.5 8.75 3.5C8.51794 3.5 8.29538 3.59219 8.13128 3.75628C7.96719 3.92038 7.875 4.14294 7.875 4.375V12.6875C7.8769 12.7455 7.86689 12.8032 7.84557 12.8571C7.82426 12.9111 7.7921 12.9601 7.75109 13.0011C7.71008 13.0421 7.66109 13.0743 7.60715 13.0956C7.55321 13.1169 7.49547 13.1269 7.4375 13.125C7.31555 13.125 7 13.0463 7 12.6875V4.8125C7 3.75484 7.45992 2.625 8.75 2.625C10.3737 2.625 10.5 4.27383 10.5 4.77859V12.3665C10.5 13.3208 10.2009 14.1838 9.65727 14.7979C9.10547 15.4219 8.3382 15.75 7.4375 15.75C6.5368 15.75 5.76953 15.4219 5.21773 14.7979C4.67414 14.1838 4.375 13.3208 4.375 12.3665V7.875C4.375 7.64294 4.28281 7.42038 4.11872 7.25628C3.95462 7.09219 3.73206 7 3.5 7C3.26794 7 3.04538 7.09219 2.88128 7.25628C2.71719 7.42038 2.625 7.64294 2.625 7.875V12.3665C2.625 15.1834 4.44008 17.2681 7 17.4814V23.625C7 24.5533 7.36875 25.4435 8.02513 26.0999C8.6815 26.7563 9.57174 27.125 10.5 27.125H21.875C22.8033 27.125 23.6935 26.7563 24.3499 26.0999C25.0063 25.4435 25.375 24.5533 25.375 23.625V13.3438C25.375 13.2857 25.352 13.2301 25.3109 13.1891C25.2699 13.148 25.2143 13.125 25.1562 13.125Z" fill="#E3255B"/>
<path d="M17.5 11.375H24.599C24.6205 11.3749 24.6416 11.3685 24.6595 11.3564C24.6774 11.3444 24.6914 11.3274 24.6996 11.3074C24.7078 11.2875 24.71 11.2656 24.7058 11.2444C24.7016 11.2233 24.6913 11.2038 24.6761 11.1885L16.8115 3.32392C16.7962 3.30872 16.7767 3.29837 16.7556 3.29419C16.7344 3.29001 16.7125 3.29217 16.6926 3.30041C16.6727 3.30865 16.6556 3.3226 16.6436 3.34051C16.6316 3.35841 16.6251 3.37946 16.625 3.40103V10.5C16.625 10.7321 16.7172 10.9546 16.8813 11.1187C17.0454 11.2828 17.2679 11.375 17.5 11.375Z" fill="#E3255B"/>
</svg>
