<svg width="30" height="24" viewBox="0 0 30 24" fill="none" xmlns="http://www.w3.org/2000/svg">
<g clip-path="url(#clip0_19_314)">
<path d="M22.691 11.833L16.2432 13.8139L16.2432 13.8139L22.691 11.833ZM22.691 11.833L23.4993 18.0271C23.4881 18.2441 23.3423 18.5664 22.942 18.9606C22.5369 19.3594 21.9285 19.773 21.1477 20.1476C19.5885 20.8957 17.4127 21.4541 15 21.4541C12.5873 21.4541 10.4115 20.8957 8.8523 20.1476C8.07149 19.773 7.46311 19.3594 7.05805 18.9606C6.66383 18.5725 6.51644 18.254 6.50132 18.0371L7.59733 11.9215L13.7562 13.8139C13.7562 13.8139 13.7562 13.8139 13.7563 13.8139C13.7563 13.8139 13.7564 13.8139 13.7565 13.8139L22.691 11.833ZM14.0498 12.8579L7.35158 10.7999L6.81213 10.6341L4.88264 10.0413L4.65168 9.9703L4.45257 10.1072C3.75401 10.5873 3.31032 11.3508 3.26658 12.2152L3.25157 12.512L3.50509 12.667C3.80978 12.8534 4.00001 13.1566 4.00001 13.5C4.00001 13.8174 3.83487 14.1004 3.56112 14.2945L3.29017 14.4866L3.36223 14.8108L4.55894 20.1958C4.59363 20.3519 4.47491 20.5 4.31485 20.5H1.6847C1.52533 20.5 1.40634 20.3521 1.44107 20.1958L2.63779 14.8108L2.70984 14.4866L2.4389 14.2945C2.16515 14.1004 2.00001 13.8174 2.00001 13.5C2.00001 13.1449 2.20086 12.8325 2.51788 12.6508L2.75866 12.5128L2.76889 12.2355C2.79507 11.5256 3.05873 10.8737 3.49608 10.3331L3.96136 9.75789L3.25419 9.54064L0.974658 8.84032L0.974622 8.84031C0.342118 8.64605 0.342118 7.85348 0.974622 7.65921L0.97466 7.6592L14.0504 3.64201L14.0505 3.64198C14.6668 3.45252 15.3332 3.45249 15.95 3.64201L29.0253 7.65917C29.0253 7.65918 29.0253 7.65919 29.0253 7.6592C29.6584 7.85388 29.6584 8.64611 29.0253 8.84079C29.0253 8.8408 29.0253 8.84081 29.0253 8.84082L23.5294 10.5293L22.9634 10.7032L15.9496 12.858C15.1243 13.1114 14.4184 12.971 14.05 12.858C14.0499 12.858 14.0499 12.8579 14.0498 12.8579ZM13.757 13.8141C13.8083 13.8299 13.8648 13.8494 13.9259 13.8705C14.1309 13.9413 14.3877 14.03 14.6763 14.0567C15.0749 14.0936 15.544 14.0281 16.2368 13.8158C16.239 13.8152 16.2411 13.8146 16.2432 13.8139L13.757 13.8141Z" stroke="#55322F"/>
</g>
<defs>
<clipPath id="clip0_19_314">
<rect width="30" height="24" fill="white"/>
</clipPath>
</defs>
</svg>
