<svg width="28" height="23" viewBox="0 0 28 23" fill="none" xmlns="http://www.w3.org/2000/svg">
<path d="M26.9531 12.9375C26.8578 12.9375 26.7664 12.9754 26.699 13.0428C26.6316 13.1102 26.5938 13.2016 26.5938 13.2969V21.9219C26.5938 22.0172 26.5559 22.1086 26.4885 22.176C26.4211 22.2434 26.3297 22.2812 26.2344 22.2812H1.07812C0.982813 22.2812 0.891404 22.2434 0.824008 22.176C0.756613 22.1086 0.71875 22.0172 0.71875 21.9219V13.2969C0.71875 13.2016 0.680887 13.1102 0.613492 13.0428C0.546096 12.9754 0.454687 12.9375 0.359375 12.9375C0.264063 12.9375 0.172654 12.9754 0.105259 13.0428C0.0378626 13.1102 0 13.2016 0 13.2969L0 21.9219C0 22.5163 0.483719 23 1.07812 23H26.2344C26.8288 23 27.3125 22.5163 27.3125 21.9219V13.2969C27.3125 13.2016 27.2746 13.1102 27.2072 13.0428C27.1398 12.9754 27.0484 12.9375 26.9531 12.9375Z" fill="#55322F"/>
<path d="M18.3281 3.59375C18.4234 3.59375 18.5148 3.55589 18.5822 3.48849C18.6496 3.4211 18.6875 3.32969 18.6875 3.23438V1.07812C18.6875 0.483719 18.2038 0 17.6094 0H9.70312C9.10872 0 8.625 0.483719 8.625 1.07812V3.23438C8.625 3.32969 8.66286 3.4211 8.73026 3.48849C8.79765 3.55589 8.88906 3.59375 8.98438 3.59375C9.07969 3.59375 9.1711 3.55589 9.23849 3.48849C9.30589 3.4211 9.34375 3.32969 9.34375 3.23438V1.07812C9.34375 0.982813 9.38161 0.891404 9.44901 0.824008C9.5164 0.756613 9.60781 0.71875 9.70312 0.71875H17.6094C17.7047 0.71875 17.7961 0.756613 17.8635 0.824008C17.9309 0.891404 17.9688 0.982813 17.9688 1.07812V3.23438C17.9688 3.32969 18.0066 3.4211 18.074 3.48849C18.1414 3.55589 18.2328 3.59375 18.3281 3.59375Z" fill="#55322F"/>
<path d="M26.2344 5.03125H1.07812C0.483719 5.03125 0 5.51497 0 6.10938V9.67294C0 11.6696 6.7965 14.3448 13.7461 14.3448C20.6051 14.3448 27.3125 11.6696 27.3125 9.67294V6.10938C27.3125 5.51497 26.8288 5.03125 26.2344 5.03125ZM26.5938 9.67294C26.5938 10.9408 20.5153 13.6261 13.7461 13.6261C6.88203 13.6261 0.71875 10.9415 0.71875 9.67294V6.10938C0.71875 6.01406 0.756613 5.92265 0.824008 5.85526C0.891404 5.78786 0.982813 5.75 1.07812 5.75H26.2344C26.3297 5.75 26.4211 5.78786 26.4885 5.85526C26.5559 5.92265 26.5938 6.01406 26.5938 6.10938V9.67294Z" fill="#55322F"/>
<path d="M13.746 16.5312C14.4238 16.5312 15.1282 16.5032 15.8405 16.4479C15.8875 16.4441 15.9334 16.4312 15.9754 16.4097C16.0175 16.3883 16.0549 16.3588 16.0855 16.3229C16.1162 16.2869 16.1394 16.2454 16.154 16.2005C16.1685 16.1556 16.1741 16.1082 16.1704 16.0612C16.1676 16.0138 16.1553 15.9674 16.1342 15.9249C16.113 15.8824 16.0835 15.8446 16.0474 15.8138C16.0113 15.783 15.9693 15.7598 15.924 15.7456C15.8786 15.7314 15.8309 15.7265 15.7837 15.7313C14.3361 15.8441 12.9741 15.8391 11.5294 15.7169C11.4361 15.7119 11.3446 15.7434 11.2741 15.8047C11.2037 15.8661 11.1599 15.9525 11.152 16.0455C11.1442 16.1386 11.1729 16.2311 11.2321 16.3034C11.2912 16.3757 11.3762 16.4221 11.469 16.4328C12.2424 16.4982 13.0086 16.5312 13.746 16.5312Z" fill="#55322F"/>
</svg>
