<svg width="33" height="33" viewBox="0 0 33 33" fill="none" xmlns="http://www.w3.org/2000/svg">
<path d="M29.1585 8.57227L28.2304 8.03086C28.4027 7.50316 28.4027 6.93434 28.2304 6.40664L29.1585 5.86523C29.2182 5.83177 29.2706 5.78677 29.3127 5.73286C29.3547 5.67895 29.3857 5.61721 29.4037 5.55123C29.4217 5.48525 29.4264 5.41635 29.4175 5.34854C29.4086 5.28073 29.3863 5.21536 29.3519 5.15625C29.3184 5.09661 29.2734 5.04422 29.2195 5.00213C29.1656 4.96005 29.1039 4.9291 29.0379 4.91111C28.9719 4.89311 28.903 4.88843 28.8352 4.89732C28.7674 4.90621 28.702 4.9285 28.6429 4.96289L27.7019 5.51719C27.3356 5.0968 26.8424 4.80718 26.2968 4.69219V3.60938C26.2968 3.47262 26.2425 3.34147 26.1458 3.24477C26.0491 3.14807 25.9179 3.09375 25.7812 3.09375C25.6444 3.09375 25.5133 3.14807 25.4166 3.24477C25.3199 3.34147 25.2656 3.47262 25.2656 3.60938V4.69219C24.72 4.80718 24.2267 5.0968 23.8605 5.51719L22.9195 4.96289C22.8604 4.9285 22.795 4.90621 22.7272 4.89732C22.6594 4.88843 22.5905 4.89311 22.5245 4.91111C22.4585 4.9291 22.3968 4.96005 22.3429 5.00213C22.289 5.04422 22.244 5.09661 22.2105 5.15625C22.1761 5.21536 22.1538 5.28073 22.1449 5.34854C22.136 5.41635 22.1407 5.48525 22.1587 5.55123C22.1767 5.61721 22.2076 5.67895 22.2497 5.73286C22.2918 5.78677 22.3442 5.83177 22.4039 5.86523L23.332 6.40664C23.1597 6.93434 23.1597 7.50316 23.332 8.03086L22.4039 8.57227C22.3032 8.62793 22.224 8.71566 22.1789 8.8215C22.1339 8.92734 22.1255 9.04521 22.1551 9.15636C22.1848 9.26751 22.2507 9.36556 22.3425 9.43491C22.4343 9.50425 22.5466 9.54092 22.6617 9.53906C22.751 9.53466 22.8386 9.51276 22.9195 9.47461L23.8605 8.92031C24.2267 9.3407 24.72 9.63032 25.2656 9.74531V10.8281C25.2656 10.9649 25.3199 11.096 25.4166 11.1927C25.5133 11.2894 25.6444 11.3438 25.7812 11.3438C25.9179 11.3438 26.0491 11.2894 26.1458 11.1927C26.2425 11.096 26.2968 10.9649 26.2968 10.8281V9.74531C26.8424 9.63032 27.3356 9.3407 27.7019 8.92031L28.6429 9.47461C28.7238 9.51276 28.8114 9.53466 28.9007 9.53906C29.0157 9.54092 29.1281 9.50425 29.2199 9.43491C29.3116 9.36556 29.3776 9.26751 29.4072 9.15636C29.4369 9.04521 29.4285 8.92734 29.3834 8.8215C29.3384 8.71566 29.2592 8.62793 29.1585 8.57227ZM25.7812 8.76562C25.4753 8.76562 25.1762 8.6749 24.9218 8.50493C24.6674 8.33496 24.4691 8.09337 24.3521 7.81071C24.235 7.52806 24.2044 7.21703 24.264 6.91697C24.3237 6.61691 24.4711 6.34128 24.6874 6.12494C24.9037 5.90861 25.1793 5.76128 25.4794 5.7016C25.7795 5.64191 26.0905 5.67254 26.3732 5.78962C26.6558 5.9067 26.8974 6.10497 27.0674 6.35935C27.2373 6.61373 27.3281 6.91281 27.3281 7.21875C27.3281 7.62901 27.1651 8.02246 26.875 8.31256C26.5849 8.60265 26.1915 8.76562 25.7812 8.76562ZM28.7203 14.502C28.5859 14.5242 28.4648 14.5962 28.3812 14.7037C28.2976 14.8112 28.2575 14.9463 28.2691 15.082C28.3316 15.5521 28.3618 16.0258 28.3593 16.5C28.3577 19.6355 27.1157 22.6429 24.9046 24.866C23.6246 22.7215 21.5719 21.1486 19.1683 20.4703C20.2846 19.8752 21.1698 18.924 21.6834 17.7679C22.1969 16.6119 22.3093 15.3173 22.0026 14.0901C21.6959 12.8629 20.9877 11.7734 19.9907 10.9948C18.9936 10.2163 17.7649 9.79344 16.4999 9.79344C15.235 9.79344 14.0063 10.2163 13.0092 10.9948C12.0122 11.7734 11.304 12.8629 10.9973 14.0901C10.6906 15.3173 10.803 16.6119 11.3165 17.7679C11.8301 18.924 12.7153 19.8752 13.8316 20.4703C11.428 21.1486 9.37533 22.7215 8.09526 24.866C6.44236 23.2053 5.31844 21.0921 4.86535 18.7933C4.41226 16.4944 4.6503 14.1128 5.54944 11.9491C6.44857 9.7854 7.9685 7.93651 9.91741 6.63579C11.8663 5.33507 14.1568 4.64081 16.4999 4.64062C16.8658 4.63851 17.2316 4.65572 17.5956 4.69219C17.7324 4.70586 17.869 4.66465 17.9754 4.57762C18.0817 4.4906 18.1492 4.36488 18.1628 4.22812C18.1765 4.09137 18.1353 3.95479 18.0483 3.84842C17.9612 3.74205 17.8355 3.67461 17.6988 3.66094C17.2992 3.62227 16.8996 3.60938 16.4999 3.60938C13.9005 3.61121 11.3623 4.39891 9.21849 5.86909C7.0747 7.33928 5.42548 9.42326 4.48728 11.8475C3.54908 14.2718 3.36573 16.9231 3.9613 19.4534C4.55688 21.9837 5.90354 24.2749 7.82456 26.0262C7.85716 26.0668 7.89638 26.1017 7.94057 26.1293C10.2971 28.2294 13.3434 29.3899 16.4999 29.3899C19.6565 29.3899 22.7028 28.2294 25.0593 26.1293C25.1035 26.1017 25.1427 26.0668 25.1753 26.0262C26.5046 24.821 27.5665 23.3506 28.2925 21.7098C29.0185 20.069 29.3926 18.2942 29.3906 16.5C29.3926 15.983 29.3625 15.4664 29.3003 14.9531C29.2811 14.8174 29.2098 14.6944 29.1015 14.6102C28.9933 14.526 28.8566 14.4872 28.7203 14.502ZM11.8593 15.4688C11.8593 14.5509 12.1315 13.6537 12.6414 12.8906C13.1513 12.1274 13.8761 11.5326 14.7241 11.1814C15.572 10.8301 16.5051 10.7382 17.4053 10.9173C18.3055 11.0964 19.1324 11.5383 19.7814 12.1873C20.4304 12.8363 20.8723 13.6632 21.0514 14.5634C21.2305 15.4636 21.1386 16.3967 20.7873 17.2446C20.4361 18.0926 19.8413 18.8174 19.0781 19.3273C18.315 19.8372 17.4178 20.1094 16.4999 20.1094C15.2692 20.1094 14.0888 19.6205 13.2185 18.7502C12.3482 17.8799 11.8593 16.6995 11.8593 15.4688ZM8.88159 25.575C9.6472 24.2297 10.7554 23.1111 12.0936 22.3329C13.4317 21.5548 14.952 21.1449 16.4999 21.1449C18.0479 21.1449 19.5682 21.5548 20.9063 22.3329C22.2445 23.1111 23.3527 24.2297 24.1183 25.575C21.9865 27.3719 19.2881 28.3575 16.4999 28.3575C13.7118 28.3575 11.0134 27.3719 8.88159 25.575Z" fill="#55322F"/>
</svg>
