<svg width="29" height="29" viewBox="0 0 29 29" fill="none" xmlns="http://www.w3.org/2000/svg">
<path d="M20.5752 21.8959L20.7316 21.7406L21.5472 20.9304L21.7003 20.7783L21.9159 20.7854C23.8155 20.8474 24.7285 20.8423 25.1865 20.7825C25.3191 20.7652 25.3873 20.746 25.418 20.7352C25.4226 20.7253 25.4285 20.7121 25.436 20.6947L26.4638 18.1924L26.4794 18.144L26.4627 18.1024L26.4626 18.102C26.4597 18.0948 26.4595 18.0946 26.459 18.0936C26.4589 18.0934 26.4588 18.0933 26.4587 18.093C26.4567 18.0893 26.4491 18.0754 26.4302 18.0477C26.3907 17.9901 26.3108 17.8856 26.1506 17.7048C25.8304 17.3436 25.2191 16.711 24.044 15.5905L23.889 15.4428V15.2286V14.0469V13.8343L24.0422 13.6868C25.4104 12.3687 26.0426 11.7103 26.3193 11.3406C26.4001 11.2326 26.4342 11.1699 26.4479 11.1404C26.444 11.13 26.4387 11.1161 26.4313 11.098L20.5752 21.8959ZM20.5752 21.8959L20.5844 22.1161C20.6642 24.0332 20.6661 24.953 20.6084 25.4123C20.5928 25.536 20.5752 25.6026 20.5647 25.6345C20.5546 25.6388 20.5417 25.6441 20.5253 25.6507L20.5223 25.6518L18.022 26.6623L18.0219 26.6623C18.0066 26.6685 17.9944 26.6733 17.9848 26.6769C17.9543 26.6618 17.8915 26.6258 17.785 26.5433C17.4137 26.2558 16.7534 25.6023 15.4331 24.1931L15.2875 24.0377L15.0746 24.035L13.9309 24.0205L13.7076 24.0176L13.5564 24.1821C12.2787 25.5725 11.6408 26.2126 11.2807 26.491C11.1822 26.5671 11.1234 26.6007 11.0944 26.615C11.084 26.611 11.0702 26.6055 11.0524 26.5981L8.52433 25.4933C8.36982 24.3191 8.33257 23.1324 8.41316 21.9508L8.42824 21.7297L8.27455 21.57L7.45893 20.7227L7.30603 20.5638L7.08564 20.5696C5.20002 20.6189 4.29566 20.606 3.84382 20.5419C3.71757 20.524 3.65146 20.5048 3.62092 20.4939C3.61635 20.4834 3.61039 20.4694 3.60293 20.4509L3.60289 20.4508L2.57158 17.8979L2.57131 17.8972C2.56375 17.8786 2.55825 17.8643 2.55429 17.8538C2.56796 17.8243 2.60183 17.7617 2.68248 17.6538C2.95871 17.2842 3.59052 16.6259 4.95884 15.3078L5.11195 15.1603V14.9477V13.7696V13.5553L4.95678 13.4075C3.77897 12.2858 3.16781 11.6534 2.84836 11.293C2.68852 11.1127 2.60916 11.0088 2.57014 10.9518C2.54374 10.9133 2.53889 10.9012 2.53774 10.8976L2.53785 10.8975L2.53734 10.8963L2.52228 10.8591L2.53942 10.8082L3.57064 8.30124C3.57785 8.28434 3.58362 8.27137 3.58809 8.26161C3.61895 8.25084 3.68693 8.23176 3.81836 8.21454C4.27586 8.15457 5.18827 8.14899 7.0869 8.21103L7.30302 8.21809L7.45618 8.06545L8.26547 7.25888L8.42088 7.10399L8.41211 6.88475C8.33547 4.96871 8.33535 4.04898 8.39369 3.5893C8.40973 3.46296 8.4278 3.39577 8.43844 3.36408C8.44855 3.35969 8.46175 3.35412 8.47868 3.34728L8.47875 3.34725L10.9845 2.33409C10.9845 2.33408 10.9845 2.33407 10.9845 2.33406C11.0018 2.32709 11.0153 2.32187 11.0257 2.31799C11.0558 2.33299 11.1178 2.36875 11.223 2.45061C11.5929 2.73833 12.2497 3.39173 13.5687 4.7997L13.7139 4.95461L13.9261 4.95781L15.0698 4.97502L15.294 4.9784L15.4456 4.81326C16.7273 3.4175 17.3666 2.77794 17.7268 2.50285C17.8197 2.43194 17.8765 2.39946 17.9056 2.38509C17.9169 2.38986 17.9317 2.39635 17.9509 2.4051L17.9509 2.40516L17.9583 2.40841L20.4734 3.50781C20.6297 4.68303 20.668 5.871 20.5878 7.05397L20.5728 7.27576L20.7274 7.43551L21.543 8.27832L21.696 8.43644L21.916 8.43043C23.8013 8.37889 24.7064 8.3934 25.1579 8.45847C25.2851 8.47679 25.3516 8.49628 25.3822 8.50736C25.3865 8.51734 25.3922 8.53057 25.3991 8.54777C25.3992 8.54783 25.3992 8.54789 25.3992 8.54795L26.4313 11.0978L20.5752 21.8959ZM9.87065 16.3616L9.87062 16.3616L9.87274 16.367C10.3638 17.6074 11.3263 18.6027 12.5495 19.1351C13.7727 19.6675 15.157 19.6937 16.3995 19.2078L16.3995 19.2079L16.4048 19.2057C17.3165 18.837 18.099 18.2074 18.6541 17.3956C19.2092 16.5839 19.5122 15.6263 19.5251 14.6431C19.538 13.6598 19.2602 12.6946 18.7266 11.8685C18.193 11.0425 17.4273 10.3925 16.5257 10.0001C15.624 9.6076 14.6265 9.49017 13.6584 9.66251C12.6902 9.83484 11.7945 10.2893 11.0836 10.9688C10.3728 11.6483 9.87846 12.5226 9.66267 13.482C9.44687 14.4414 9.51922 15.4432 9.87065 16.3616Z" stroke="#55322F"/>
</svg>
